<?xml version="1.0" standalone="no"?>
<!DOCTYPE svg PUBLIC "-//W3C//DTD SVG 20010904//EN"
 "http://www.w3.org/TR/2001/REC-SVG-20010904/DTD/svg10.dtd">
<svg version="1.0" xmlns="http://www.w3.org/2000/svg"
 width="300.000000pt" height="300.000000pt" viewBox="0 0 300.000000 300.000000"
 preserveAspectRatio="xMidYMid meet">

<g transform="translate(0.000000,300.000000) scale(0.100000,-0.100000)"
fill="#000000" stroke="none">
<path d="M985 2934 c-193 -47 -378 -203 -460 -389 -70 -156 -71 -369 -4 -525
l22 -52 21 28 c68 95 191 195 297 242 168 73 375 76 547 8 115 -46 244 -147
318 -250 l21 -28 21 51 c59 137 66 315 18 467 -68 213 -255 389 -472 444 -92
24 -239 25 -329 4z"/>
<path d="M1681 2929 c-41 -10 -78 -24 -82 -30 -3 -6 -9 -10 -13 -9 -4 1 -12
-1 -19 -4 -8 -3 -6 -10 8 -21 11 -8 49 -44 84 -78 143 -138 211 -303 211 -507
0 -229 -84 -405 -270 -563 -52 -44 -51 -45 50 -78 91 -30 261 -37 355 -15 96
23 220 86 289 148 69 61 140 154 130 170 -4 6 -3 8 3 5 12 -8 53 81 79 168 26
89 23 258 -6 350 -76 240 -259 415 -490 470 -91 21 -238 18 -329 -6z"/>
<path d="M642 803 c-12 -2 -20 -9 -17 -14 3 -5 0 -6 -8 -4 -20 8 -65 -31 -88
-78 -17 -31 -20 -52 -16 -89 23 -194 307 -198 333 -4 12 85 -40 162 -123 185
-39 11 -42 11 -81 4z m107 -41 c87 -47 95 -178 15 -241 -56 -44 -136 -36 -189
19 -39 41 -47 123 -16 173 39 63 123 85 190 49z"/>
<path d="M2300 804 c-73 -27 -107 -54 -95 -74 5 -8 14 -5 29 9 86 81 219 34
242 -86 10 -53 -29 -121 -84 -145 -119 -53 -238 57 -192 178 14 36 -3 55 -21
23 -18 -34 -16 -108 4 -149 9 -20 36 -48 60 -64 36 -24 50 -27 100 -24 64 5
98 25 135 78 45 67 20 180 -50 227 -34 23 -101 37 -128 27z"/>
<path d="M1150 676 c0 -69 -3 -126 -7 -125 -5 0 -36 35 -71 77 -66 81 -140
162 -147 162 -3 0 -5 -70 -5 -155 0 -131 2 -155 15 -155 13 0 15 20 15 120 0
66 3 120 8 119 4 0 34 -32 67 -71 33 -39 81 -94 107 -122 l48 -51 -3 159 c-1
117 -5 160 -14 164 -10 3 -13 -26 -13 -122z"/>
<path d="M1230 785 c0 -10 11 -15 35 -15 l35 0 0 -145 c0 -122 2 -145 15 -145
13 0 15 23 15 145 l0 145 35 0 c24 0 35 5 35 15 0 12 -16 15 -85 15 -69 0 -85
-3 -85 -15z"/>
<path d="M1800 640 c0 -100 4 -160 10 -160 6 0 11 27 11 60 1 33 2 65 3 72 3
30 28 13 81 -57 32 -41 64 -75 72 -75 17 0 14 6 -50 88 l-49 62 30 0 c38 0 79
32 87 70 14 62 -38 100 -135 100 l-60 0 0 -160z m153 112 c9 -8 17 -25 17 -37
0 -41 -30 -61 -90 -60 l-55 0 -3 49 c-2 27 -1 54 1 60 6 16 108 7 130 -12z"/>
<path d="M2070 640 c0 -136 2 -160 15 -160 13 0 15 24 15 160 0 136 -2 160
-15 160 -13 0 -15 -24 -15 -160z"/>
<path d="M1531 687 c-28 -58 -62 -128 -76 -156 -20 -41 -22 -51 -10 -51 8 0
27 24 42 53 l28 52 70 0 70 0 28 -52 c15 -29 32 -53 37 -53 6 0 10 2 10 3 0 9
-133 293 -141 301 -5 6 -29 -34 -58 -97z m109 -68 c0 -5 -27 -9 -60 -9 l-60 0
32 65 32 65 28 -56 c15 -31 28 -60 28 -65z"/>
<path d="M543 390 c-37 -22 -53 -76 -34 -116 17 -37 70 -66 111 -60 35 5 80
45 80 70 0 15 -58 27 -66 14 -3 -4 8 -8 25 -8 29 0 30 -1 19 -25 -14 -31 -65
-49 -100 -36 -30 11 -68 57 -68 80 0 9 9 30 20 48 24 41 74 52 121 29 18 -9
34 -14 37 -12 8 8 -57 36 -85 36 -15 0 -42 -9 -60 -20z"/>
<path d="M782 313 c1 -54 3 -77 5 -50 2 26 8 47 12 47 4 0 22 -20 41 -45 18
-25 36 -43 38 -40 3 2 -7 20 -22 39 -31 41 -32 46 -8 46 44 0 57 58 20 84 -12
9 -37 16 -55 16 l-33 0 2 -97z m96 54 c6 -28 -17 -47 -54 -47 -33 0 -34 1 -34
38 l0 38 42 -5 c30 -4 44 -11 46 -24z"/>
<path d="M970 315 l0 -95 58 2 57 1 -50 6 c-50 6 -50 6 -52 44 l-2 37 50 0
c27 0 49 5 49 10 0 6 -22 10 -49 10 -49 0 -50 1 -49 30 1 29 3 30 50 30 26 0
48 5 48 10 0 6 -25 10 -55 10 l-55 0 0 -95z"/>
<path d="M1150 315 l0 -95 53 2 52 2 -47 3 -48 4 0 40 0 39 45 0 c25 0 45 5
45 10 0 6 -21 10 -46 10 -45 0 -45 0 -42 32 3 32 4 33 46 30 25 -2 42 1 42 7
0 6 -21 11 -50 11 l-50 0 0 -95z"/>
<path d="M1458 333 l-3 -78 -62 72 c-34 40 -64 69 -67 64 -8 -13 -2 -171 7
-171 4 0 7 33 7 73 l1 72 64 -70 64 -70 1 93 c0 50 -2 92 -5 92 -2 0 -5 -35
-7 -77z"/>
<path d="M1563 315 c1 -55 2 -79 4 -52 l4 47 54 0 c52 0 53 0 51 -29 -1 -16 1
-37 5 -47 4 -11 8 23 8 74 1 50 -3 92 -7 92 -4 0 -7 -17 -7 -37 l0 -38 -50 0
-50 -1 -6 46 c-4 29 -6 9 -6 -55z"/>
<path d="M1813 398 c-30 -15 -55 -70 -47 -105 28 -117 193 -100 194 20 0 74
-77 119 -147 85z m108 -27 c36 -36 38 -79 6 -116 -49 -58 -147 -21 -147 54 1
82 84 119 141 62z"/>
<path d="M2042 333 c-2 -71 1 -86 18 -103 24 -24 48 -25 78 -4 20 14 22 22 20
102 l-2 87 -3 -83 c-3 -74 -6 -84 -28 -98 -18 -12 -28 -13 -44 -4 -24 12 -30
32 -34 120 -3 61 -3 60 -5 -17z"/>
<path d="M2250 395 c-18 -22 -5 -57 30 -80 31 -20 47 -55 35 -74 -8 -14 -52
-14 -60 -1 -3 5 -11 10 -17 10 -6 0 -3 -9 7 -20 10 -11 26 -20 37 -20 20 0 58
33 58 51 0 6 -20 32 -45 57 -50 51 -52 54 -29 73 12 10 20 10 35 1 26 -16 34
-15 19 3 -16 19 -54 19 -70 0z"/>
<path d="M2410 315 l0 -95 58 2 c56 2 56 2 10 5 l-48 4 0 40 0 39 45 0 c25 0
45 5 45 10 0 6 -20 10 -45 10 -43 0 -45 1 -45 30 0 29 2 30 45 30 25 0 45 4
45 9 0 5 -25 9 -55 10 l-55 0 0 -94z"/>
<path d="M631 73 c1 -32 4 -46 6 -31 3 20 11 28 31 31 l27 4 -27 2 c-39 2 -39
38 0 44 25 4 25 4 -5 6 l-33 1 1 -57z"/>
<path d="M747 112 c-10 -10 -17 -23 -17 -28 0 -5 5 -1 11 9 6 10 20 22 32 27
15 6 17 9 6 9 -9 1 -23 -7 -32 -17z"/>
<path d="M894 116 c-3 -7 -4 -33 -2 -57 3 -39 6 -44 28 -45 22 -1 22 0 3 3
-35 7 -32 50 5 56 l27 4 -27 2 c-21 1 -28 6 -28 20 0 15 8 21 33 24 l32 4 -33
1 c-20 1 -35 -3 -38 -12z"/>
<path d="M997 122 c6 -4 13 -30 16 -57 l3 -50 2 52 c2 40 6 53 20 56 9 3 1 5
-18 6 -19 0 -30 -3 -23 -7z"/>
<path d="M1222 73 c2 -36 8 -57 16 -59 7 -1 8 0 2 3 -5 2 -10 16 -10 30 0 21
4 25 23 21 18 -3 22 0 24 21 1 21 0 22 -8 8 -6 -9 -17 -17 -24 -17 -21 0 -19
38 3 43 12 3 11 5 -6 6 -22 1 -23 -2 -20 -56z"/>
<path d="M1334 73 c1 -44 5 -58 16 -59 8 0 10 1 3 3 -7 2 -14 28 -16 59 l-4
54 1 -57z"/>
<path d="M1421 73 c1 -32 4 -46 6 -31 3 20 11 28 31 31 l27 4 -27 2 c-21 1
-28 6 -28 20 0 14 8 21 28 24 25 4 25 4 -5 6 l-33 1 1 -57z"/>
<path d="M1710 126 c0 -2 7 -7 16 -10 8 -3 12 -2 9 4 -6 10 -25 14 -25 6z"/>
<path d="M1800 93 c0 -20 3 -33 7 -30 3 4 13 1 21 -6 11 -8 14 -8 9 0 -4 6 -1
14 5 16 7 3 3 6 -9 6 -16 1 -23 7 -23 20 0 12 8 21 23 24 19 4 18 4 -5 6 -26
1 -28 -2 -28 -36z"/>
<path d="M1926 111 c-10 -11 -16 -29 -13 -43 4 -21 4 -21 6 4 0 15 11 34 23
42 12 9 18 16 12 16 -6 0 -19 -9 -28 -19z"/>
<path d="M1998 114 c12 -8 23 -27 23 -42 2 -25 2 -25 6 -4 5 24 -21 62 -41 62
-6 0 0 -7 12 -16z"/>
<path d="M2263 123 c9 -2 25 -2 35 0 9 3 1 5 -18 5 -19 0 -27 -2 -17 -5z"/>
<path d="M2351 73 c1 -32 4 -45 6 -30 4 28 5 28 25 10 21 -18 21 -18 7 5 -8
12 -17 22 -21 22 -5 0 -8 9 -8 20 0 14 7 20 24 20 13 0 27 -5 29 -10 3 -6 4
-5 3 2 -1 7 -17 14 -34 16 l-32 3 1 -58z"/>
<path d="M2465 119 c-4 -6 -5 -12 -2 -15 2 -3 7 2 10 11 7 17 1 20 -8 4z"/>
<path d="M1645 109 c-4 -6 -5 -12 -2 -15 2 -3 7 2 10 11 7 17 1 20 -8 4z"/>
<path d="M2126 104 c-4 -9 -4 -19 -1 -22 3 -3 5 0 5 7 0 7 4 9 10 6 6 -3 7 1
4 9 -8 20 -10 20 -18 0z"/>
<path d="M562 85 c-17 -37 -14 -45 4 -12 9 16 14 31 11 33 -2 2 -9 -7 -15 -21z"/>
<path d="M1861 94 c0 -11 3 -14 6 -6 3 7 2 16 -1 19 -3 4 -6 -2 -5 -13z"/>
<path d="M510 85 c0 -5 5 -17 10 -25 5 -8 10 -10 10 -5 0 6 -5 17 -10 25 -5 8
-10 11 -10 5z"/>
<path d="M2400 80 c-9 -6 -10 -10 -3 -10 6 0 15 5 18 10 8 12 4 12 -15 0z"/>
<path d="M1097 66 c-5 -12 0 -16 21 -15 16 0 21 3 12 6 -8 3 -18 10 -21 15 -3
5 -9 3 -12 -6z"/>
<path d="M2278 73 c6 -2 18 -2 25 0 6 3 1 5 -13 5 -14 0 -19 -2 -12 -5z"/>
<path d="M823 63 c20 -5 22 -14 5 -33 -11 -12 -10 -12 5 -1 24 19 21 41 -5 40
-17 -1 -19 -2 -5 -6z"/>
<path d="M1150 64 c0 -6 7 -19 16 -30 14 -18 14 -18 3 6 -14 31 -19 36 -19 24z"/>
<path d="M1710 66 c0 -2 11 -6 25 -8 13 -3 22 -1 19 3 -5 9 -44 13 -44 5z"/>
<path d="M1654 33 c12 -14 29 -22 45 -22 l26 2 -25 4 c-14 3 -34 12 -45 21
-20 17 -20 17 -1 -5z"/>
<path d="M1801 34 c0 -11 3 -14 6 -6 3 7 2 16 -1 19 -3 4 -6 -2 -5 -13z"/>
<path d="M2090 40 c0 -5 5 -10 10 -10 6 0 10 5 10 10 0 6 -4 10 -10 10 -5 0
-10 -4 -10 -10z"/>
<path d="M2165 40 c3 -5 8 -10 11 -10 2 0 4 5 4 10 0 6 -5 10 -11 10 -5 0 -7
-4 -4 -10z"/>
<path d="M2468 18 c5 -5 16 -8 23 -6 8 3 3 7 -10 11 -17 4 -21 3 -13 -5z"/>
<path d="M778 13 c6 -2 18 -2 25 0 6 3 1 5 -13 5 -14 0 -19 -2 -12 -5z"/>
<path d="M1958 13 c6 -2 18 -2 25 0 6 3 1 5 -13 5 -14 0 -19 -2 -12 -5z"/>
<path d="M2278 13 c7 -3 16 -2 19 1 4 3 -2 6 -13 5 -11 0 -14 -3 -6 -6z"/>
</g>
</svg>
