<?xml version="1.0" standalone="no"?>
<!DOCTYPE svg PUBLIC "-//W3C//DTD SVG 20010904//EN"
 "http://www.w3.org/TR/2001/REC-SVG-20010904/DTD/svg10.dtd">
<svg version="1.0" xmlns="http://www.w3.org/2000/svg"
 width="764.000000pt" height="765.000000pt" viewBox="0 0 764.000000 765.000000"
 preserveAspectRatio="xMidYMid meet">

<g transform="translate(0.000000,765.000000) scale(0.100000,-0.100000)"
fill="#000000" stroke="none">
<path d="M4793 7505 c-155 -20 -324 -58 -478 -110 -126 -41 -335 -131 -335
-144 0 -3 10 -12 23 -20 73 -45 258 -194 353 -284 420 -400 691 -934 770
-1517 21 -150 23 -480 5 -620 -52 -412 -186 -779 -403 -1106 -187 -282 -428
-529 -691 -707 l-67 -46 27 -15 c67 -34 246 -106 338 -136 261 -83 463 -114
750 -114 225 0 350 14 545 60 1002 235 1737 1063 1856 2090 30 259 9 584 -55
849 -121 498 -432 983 -836 1304 -335 267 -697 427 -1130 502 -159 27 -509 35
-672 14z"/>
<path d="M2235 7494 c-354 -48 -736 -190 -1020 -379 -583 -389 -961 -985
-1066 -1680 -25 -165 -30 -460 -10 -620 30 -244 114 -539 209 -738 l47 -99 69
98 c354 499 882 860 1468 1004 232 57 309 65 613 65 304 0 381 -8 613 -65 365
-90 736 -278 1022 -518 171 -144 365 -357 475 -525 21 -32 42 -54 46 -50 4 4
29 55 55 113 92 208 162 456 195 700 20 139 17 477 -5 620 -104 693 -471 1284
-1036 1672 -313 215 -675 352 -1063 403 -146 19 -471 18 -612 -1z"/>
</g>
</svg>
